<svg xmlns="http://www.w3.org/2000/svg" width="1200" height="700" viewBox="0 0 1200 700" role="img" aria-labelledby="title desc">
<title id="title">Five new tickets. One frozen test.</title>
<desc id="desc">Frozen confirmation set. Both arms meet five of five reviewed targets; skill uses 93.2 percent normalized total tokens and 71.3 percent normalized elapsed time.</desc>
<rect width="1200" height="700" fill="#0F0F10"/>
<g font-family="Arial, sans-serif" fill="#F7F7F8">
<text x="48" y="55" font-size="30" text-anchor="start" opacity="1">Five new tickets. One frozen test.</text>
<text x="48" y="88" font-size="17" text-anchor="start" opacity="1">GPT-6 Astra · medium · 5 tasks × 2 arms × 1 fresh session</text>
<text x="48" y="116" font-size="15" text-anchor="start" opacity="0.78">Confirmation snapshot e76efcf · baseline = 100% per task</text>
<text x="48" y="170" font-size="20" text-anchor="start" opacity="1">Total tokens</text>
<text x="48" y="194" font-size="13" text-anchor="start" opacity="0.78">Input (cache included) + output</text>
<path d="M90 490.0h285" stroke="#C2C4C8" stroke-opacity=".18"/>
<text x="82" y="494.0" font-size="12" text-anchor="end" opacity="0.78">0%</text>
<path d="M90 405.0h285" stroke="#C2C4C8" stroke-opacity=".18"/>
<text x="82" y="409.0" font-size="12" text-anchor="end" opacity="0.78">50%</text>
<path d="M90 320.0h285" stroke="#C2C4C8" stroke-opacity=".18"/>
<text x="82" y="324.0" font-size="12" text-anchor="end" opacity="0.78">100%</text>
<path d="M90 235.0h285" stroke="#C2C4C8" stroke-opacity=".18"/>
<text x="82" y="239.0" font-size="12" text-anchor="end" opacity="0.78">150%</text>
<rect x="130" y="320.0" width="72" height="170.0" fill="#C2C4C8" fill-opacity="0.48"/>
<text x="166" y="308.0" font-size="16" text-anchor="middle" opacity="1">100.0%</text>
<text x="166" y="520" font-size="15" text-anchor="middle" opacity="1">baseline</text>
<rect x="260" y="331.55999999999995" width="72" height="158.44000000000003" fill="#3385FF" fill-opacity="1"/>
<text x="296" y="319.55999999999995" font-size="16" text-anchor="middle" opacity="1">93.2%</text>
<text x="296" y="520" font-size="15" text-anchor="middle" opacity="1">skill</text>
<text x="438" y="170" font-size="20" text-anchor="start" opacity="1">Elapsed time</text>
<text x="438" y="194" font-size="13" text-anchor="start" opacity="0.78">Process wall time</text>
<path d="M480 490.0h285" stroke="#C2C4C8" stroke-opacity=".18"/>
<text x="472" y="494.0" font-size="12" text-anchor="end" opacity="0.78">0%</text>
<path d="M480 405.0h285" stroke="#C2C4C8" stroke-opacity=".18"/>
<text x="472" y="409.0" font-size="12" text-anchor="end" opacity="0.78">50%</text>
<path d="M480 320.0h285" stroke="#C2C4C8" stroke-opacity=".18"/>
<text x="472" y="324.0" font-size="12" text-anchor="end" opacity="0.78">100%</text>
<path d="M480 235.0h285" stroke="#C2C4C8" stroke-opacity=".18"/>
<text x="472" y="239.0" font-size="12" text-anchor="end" opacity="0.78">150%</text>
<rect x="520" y="320.0" width="72" height="170.0" fill="#C2C4C8" fill-opacity="0.48"/>
<text x="556" y="308.0" font-size="16" text-anchor="middle" opacity="1">100.0%</text>
<text x="556" y="520" font-size="15" text-anchor="middle" opacity="1">baseline</text>
<rect x="650" y="368.79" width="72" height="121.21" fill="#3385FF" fill-opacity="1"/>
<text x="686" y="356.79" font-size="16" text-anchor="middle" opacity="1">71.3%</text>
<text x="686" y="520" font-size="15" text-anchor="middle" opacity="1">skill</text>
<text x="828" y="170" font-size="20" text-anchor="start" opacity="1">Same coverage.</text>
<text x="828" y="194" font-size="20" text-anchor="start" opacity="1">Less waiting.</text>
<text x="828" y="225" font-size="14" text-anchor="start" opacity="0.78">Reviewed targets: 5/5 → 5/5</text>
<text x="1033" y="260" font-size="12" text-anchor="middle" opacity="0.78">baseline</text>
<text x="1123" y="260" font-size="12" text-anchor="middle" opacity="0.78">skill</text>
<path d="M828 309h330" stroke="#C2C4C8" stroke-opacity=".13"/>
<text x="828" y="294" font-size="14" text-anchor="start" opacity="1">Stale result</text>
<text x="1033" y="294" font-size="11" text-anchor="middle" opacity="1">FOUND</text>
<text x="1123" y="294" font-size="11" text-anchor="middle" opacity="1">FOUND</text>
<path d="M1096 301h54" stroke="#3385FF" stroke-width="3"/>
<path d="M828 351h330" stroke="#C2C4C8" stroke-opacity=".13"/>
<text x="828" y="336" font-size="14" text-anchor="start" opacity="1">Stale error</text>
<text x="1033" y="336" font-size="11" text-anchor="middle" opacity="1">FOUND</text>
<text x="1123" y="336" font-size="11" text-anchor="middle" opacity="1">FOUND</text>
<path d="M1096 343h54" stroke="#3385FF" stroke-width="3"/>
<path d="M828 393h330" stroke="#C2C4C8" stroke-opacity=".13"/>
<text x="828" y="378" font-size="14" text-anchor="start" opacity="1">After clear</text>
<text x="1033" y="378" font-size="11" text-anchor="middle" opacity="1">FOUND</text>
<text x="1123" y="378" font-size="11" text-anchor="middle" opacity="1">FOUND</text>
<path d="M1096 385h54" stroke="#3385FF" stroke-width="3"/>
<path d="M828 435h330" stroke="#C2C4C8" stroke-opacity=".13"/>
<text x="828" y="420" font-size="14" text-anchor="start" opacity="1">Double submit</text>
<text x="1033" y="420" font-size="11" text-anchor="middle" opacity="1">FOUND</text>
<text x="1123" y="420" font-size="11" text-anchor="middle" opacity="1">FOUND</text>
<path d="M1096 427h54" stroke="#3385FF" stroke-width="3"/>
<path d="M828 477h330" stroke="#C2C4C8" stroke-opacity=".13"/>
<text x="828" y="462" font-size="14" text-anchor="start" opacity="1">Clean guard</text>
<text x="1033" y="462" font-size="11" text-anchor="middle" opacity="1">CORRECT</text>
<text x="1123" y="462" font-size="11" text-anchor="middle" opacity="1">CORRECT</text>
<path d="M1096 469h54" stroke="#3385FF" stroke-width="3"/>
<text x="828" y="530" font-size="15" text-anchor="start" opacity="1">False positives  0 → 0</text>
<text x="48" y="585" font-size="15" text-anchor="start" opacity="1">Same reviewed coverage; tokens decreased 6.8%; elapsed time decreased 28.7%.</text>
<text x="48" y="615" font-size="14" text-anchor="start" opacity="0.78">Baseline = 100% per task; bars are equal-weight means of task ratios.</text>
<text x="48" y="643" font-size="14" text-anchor="start" opacity="0.78">Descriptive checkpoint, not a confidence interval or universal superiority claim.</text>
</g></svg>
